<?xml version="1.0" encoding="UTF-8" standalone="no"?>
<svg
   version="1.0"
   x="0px"
   y="0px"
   viewBox="0 0 41.377449 92.737358"
   enable-background="new 0 0 100 100"
   xml:space="preserve"
   id="svg2"
   sodipodi:docname="car-blue-bad.svg"
   width="41.377449"
   height="92.737358"
   inkscape:version="1.3 (0e150ed6c4, 2023-07-21)"
   xmlns:inkscape="http://www.inkscape.org/namespaces/inkscape"
   xmlns:sodipodi="http://sodipodi.sourceforge.net/DTD/sodipodi-0.dtd"
   xmlns="http://www.w3.org/2000/svg"
   xmlns:svg="http://www.w3.org/2000/svg"><defs
     id="defs2" /><sodipodi:namedview
     id="namedview2"
     pagecolor="#ffffff"
     bordercolor="#000000"
     borderopacity="0.25"
     inkscape:showpageshadow="2"
     inkscape:pageopacity="0.0"
     inkscape:pagecheckerboard="0"
     inkscape:deskcolor="#d1d1d1"
     inkscape:zoom="9.3771595"
     inkscape:cx="30.766246"
     inkscape:cy="56.040425"
     inkscape:window-width="2560"
     inkscape:window-height="1417"
     inkscape:window-x="4912"
     inkscape:window-y="389"
     inkscape:window-maximized="1"
     inkscape:current-layer="svg2"
     showguides="true" /><path
     id="rect2"
     style="fill:#3446a8;fill-opacity:1;stroke-width:6.31181;stroke-dasharray:12.6236, 6.31181"
     inkscape:label="windows"
     d="m 20.123047,18.185547 c -3.938645,0.07467 -7.842638,0.958905 -11.4414064,2.558594 -1.4428888,0.626586 -2.9191837,1.342348 -4.1026,2.363092 -0.6612801,1.169834 -0.3413116,2.565096 -0.3270875,3.843939 0.058159,0.709179 0.1296551,1.41731 0.2207031,2.123047 -0.510036,0.21454 -0.3999326,0.933023 -0.4431362,1.656713 -0.5357908,1.238038 -0.090124,1.932197 -0.2263686,3.244721 -0.3619942,8.295699 -0.3334447,16.42795 0.2350922,24.710177 0.4777321,5.447518 -0.1350944,10.95399 1.3341783,16.243389 0.8698498,2.870815 2.7792545,5.263179 4.0745321,7.936408 0.4407531,0.694938 0.864891,1.399644 1.263984,2.120701 -0.184044,-0.97185 0.570507,0.164884 0.99062,0.302936 3.1994,2.016163 7.147606,2.157072 10.816321,2.003526 2.890304,-0.172365 5.975765,-0.801239 8.173527,-2.816228 -0.117411,1.027962 0.445959,-0.436738 0.690963,-0.735749 0.980489,-1.592159 1.827603,-3.269785 2.793235,-4.876434 1.171004,-1.826572 1.937522,-3.872395 2.374326,-5.9922 1.09294,-5.151548 0.454843,-9.913701 0.849893,-15.156757 0.523061,-8.783831 0.987971,-18.115976 0.407846,-26.898443 -0.190436,-0.498554 -0.152788,-1.032068 -0.621976,-1.233848 -0.530008,-0.109448 -0.591586,-0.231415 -0.203219,-1.097622 0.148747,-1.533769 0.342968,-3.103257 0.134442,-4.633712 -0.130225,-0.539463 -0.389418,-0.981667 -0.907937,-1.220938 -2.440995,-1.662773 -5.263622,-2.672006 -8.078081,-3.502775 -2.608676,-0.667197 -5.316656,-0.971248 -8.007856,-0.942537 z m 8.817588,25.760031 -3.964073,-0.838156 c 0.07943,-0.822266 2.312526,1.453922 2.391953,0.631656 z m -7.973838,-0.662375 c 3.736509,0.03691 7.485604,0.346998 11.136719,1.167969 -0.604371,6.492183 -1.072967,13.001666 -1.116649,19.525027 -0.05942,0.500959 -0.981962,0.236369 -1.388589,0.42734 -1.926674,0.273846 -3.867472,0.438093 -5.811169,0.528102 -0.490049,0.01826 -1.33587,0.05011 -1.963593,0.05343 C 18.00377,65.038301 14.176583,64.78468 10.402344,64.191405 10.346934,57.59655 9.8812157,51.014136 9.28125,44.449218 c 1.447769,-0.32925 3.166007,-0.604445 4.478516,-0.761719 2.392524,-0.269204 4.799087,-0.412777 7.207031,-0.404296 z"
     sodipodi:nodetypes="cccccccccccccccccccccccccccccccccccccccc" /><path
     id="path4"
     style="fill:#ffa800;fill-opacity:1;stroke-width:6.31181;stroke-dasharray:12.6236, 6.31181"
     inkscape:label="front-lamps"
     d="M 12.177691,2.7541221 C 9.2687543,3.2101677 6.5262808,4.7882504 4.7478173,7.1063764 3.5610787,8.7337188 3.2627092,10.302737 3.5070777,12.217708 3.6854454,13.666285 3.9978675,14.79456 5.5644531,14.558594 7.3107201,14.355492 8.1727044,12.582979 8.7578125,11.126953 9.2536363,9.994297 9.6224203,8.7077445 10.703125,7.9765625 11.703603,6.9882755 12.600449,5.8408176 13.185547,4.5703125 13.623103,3.4149217 14.163404,2.647912 12.93906,2.3743234 12.674713,2.2844507 12.454214,2.7297048 12.177691,2.7541221 Z M 28.221268,2.5686805 c -1.371338,0.232649 -0.555702,1.0438079 0.08147,2.2516321 0.762544,1.4510676 1.864068,2.7423974 3.100719,3.8335329 1.256814,1.7266235 1.411526,4.2340225 3.284047,5.5063105 1.295105,0.920773 2.549616,-0.192174 3.104479,-1.653701 0.679156,-1.645992 0.383549,-2.192613 0.0057,-3.8944476 C 36.994616,6.3613363 34.495419,4.9137002 32.489208,3.7625536 31.279085,3.1924466 30.549153,2.5908015 29.183689,2.6952233 l -1.636773,0.4928524 z"
     sodipodi:nodetypes="ccccccccccccccccccc" /><path
     id="path5"
     style="fill:#ff0009;fill-opacity:1;stroke-width:6.31181;stroke-dasharray:12.6236, 6.31181"
     inkscape:label="rear-lamps"
     d="m 35.615234,79.773438 c -0.691231,0.02702 -1.06054,0.613597 -1.370678,1.150425 -0.379862,1.395112 -0.472793,2.959233 -1.379322,4.146449 -1.557347,1.302348 -3.367256,2.251191 -5.175781,3.152344 -0.513159,0.312925 -0.78363,0.789485 -0.90356,1.368557 0.0046,0.484735 -0.802836,1.323622 -0.202192,1.548455 0.855443,0.288303 1.225523,0.05579 2.172747,-0.183039 2.173222,-0.586137 2.756957,-0.643595 4.712578,-1.772892 1.467728,-0.85495 3.555441,-4.197798 3.787907,-5.911591 0.296202,-1.685135 1.297241,-1.346137 0.502833,-2.891287 -0.486938,-0.223058 -0.905061,-0.859672 -1.438774,-0.803806 -0.235252,0.06546 -0.470505,0.130923 -0.705758,0.196385 z M 3.8515625,80.251953 c -0.8728498,0.818988 0.8734284,0.755349 0.7436222,1.864619 -0.074029,2.04953 0.7231302,5.452316 2.4980958,6.655793 2.0279808,1.45984 3.4549805,1.465778 5.8202545,2.18179 0.94603,0.146655 1.100867,0.771664 2.055215,0.723579 C 14.741698,90.708254 14.673902,89.640085 14.348255,88.73228 13.147698,87.743946 11.605174,87.311137 10.348707,86.39671 9.3812858,85.730982 8.1612464,85.138397 7.8891297,83.880239 7.4399232,82.870679 7.4820496,81.703962 7,80.722656 6.7219051,80.138276 6.3902349,79.637132 5.6670902,79.742769 c -0.5642383,-0.03865 -1.2181344,-0.350496 -1.565259,0.27175 -0.083423,0.07914 -0.1668458,0.158289 -0.2502687,0.237434 z"
     sodipodi:nodetypes="cccccccccccccccccccccccc" /><path
     d="m 20.360329,0.00199575 c -1.659798,0.019663 -3.311001,0.2255411 -4.930637,0.5870605 -1.617588,0.3610616 -3.190586,0.90528385 -4.699723,1.58782525 -1.5186419,0.6868386 -2.9721979,1.5373087 -4.3271899,2.5072446 -0.683437,0.4892197 -1.339539,1.0150871 -1.945896,1.5977836 -0.574985,0.552552 -1.153999,1.169839 -1.484848,1.905265 -0.341953,0.760121 -0.376799,1.585661 -0.416029,2.4052623 -0.04238,0.885393 -0.05104,1.772321 -0.07001,2.65842 -0.03849,1.797337 -0.0405,3.596134 -0.06032,5.393784 -0.01937,1.757429 -0.07364,3.519061 0.101776,5.27095 0.08726,0.871416 0.263649,1.730471 0.362801,2.600393 0.09872,0.866129 0.115856,1.732096 0.117992,2.602888 l 0.0033,1.342835 c 2.67e-4,0.108932 5.11e-4,0.217865 7.17e-4,0.326793 1.11e-4,0.06027 0.02697,0.210785 6.37e-4,0.26167 -0.02285,0.04414 -0.132358,0.08284 -0.176689,0.108093 -0.09478,0.05399 -0.188762,0.109249 -0.281549,0.166573 -0.354512,0.219013 -0.704726,0.445766 -1.039574,0.69416 -0.300384,0.222828 -0.607883,0.442326 -0.870308,0.710491 -0.238237,0.24345 -0.407261,0.510941 -0.497881,0.839184 -0.09838,0.35635 -0.149637,0.760796 -0.14675500183,1.131245 0.001100002,0.143699 0.0106200018,0.3726 0.15332400183,0.454456 0.149851,0.08596 0.367178,-0.0099 0.509676,-0.06732 0.394974,-0.159061 0.778822,-0.343658 1.16387,-0.525211 0.389893,-0.183834 0.778877,-0.369587 1.168343,-0.554325 0.01206,0.271366 -0.01787,0.552311 -0.02763,0.824447 -0.0106,0.295639 -0.02118,0.591278 -0.03179,0.886917 -0.02102,0.585934 -0.04212,1.171864 -0.06315,1.757798 -0.04197,1.168952 -0.09187,2.337913 -0.121807,3.507232 -0.06022,2.352215 -0.11905,4.70393 -0.154154,7.056664 -0.03444,2.30809 -0.07388,4.619415 -0.0285,6.927608 0.04593,2.336075 0.13448,4.674194 0.134228,7.010792 -6.1e-5,0.552925 -0.0062,1.106789 -0.04062,1.658783 -0.0355,0.568764 -0.09586,1.135315 -0.152121,1.702286 -0.111812,1.1268 -0.159698,2.24794 -0.191686,3.381897 -0.0329,1.166198 -0.03033,2.335045 -0.02054,3.501571 0.01,1.189942 0.01347,2.380105 0.0307,3.569962 0.0171,1.180664 0.03944,2.361626 0.08739,3.541496 0.02337,0.574952 0.05402,1.15641 0.194437,1.716797 0.134054,0.534996 0.36688,1.037293 0.597067,1.536171 0.494682,1.072113 1.004021,2.137421 1.481766,3.217255 0.222915,0.503845 0.442825,1.00534 0.669597,1.506569 0.20921,0.462402 0.416737,0.939972 0.782788,1.302871 0.364475,0.361344 0.816715,0.619309 1.262474,0.866105 0.495746,0.274482 1.006942,0.520103 1.524612,0.750228 1.064266,0.473107 2.1602329,0.868721 3.2726859,1.212159 2.193138,0.677078 4.493938,1.15641 6.790421,1.256401 1.185241,0.0516 2.371952,0.05177 3.556907,-0.0078 1.167965,-0.05875 2.325737,-0.226494 3.471779,-0.455788 2.265309,-0.453232 4.488697,-1.130394 6.597267,-2.078102 0.518067,-0.232849 1.02586,-0.487694 1.520981,-0.76606 0.443024,-0.249077 0.912701,-0.528305 1.238224,-0.927254 0.336914,-0.412895 0.540718,-0.916114 0.755875,-1.398658 0.224212,-0.502884 0.447029,-1.00811 0.671692,-1.512909 0.461158,-1.036171 0.953666,-2.05819 1.427108,-3.088753 0.199059,-0.433296 0.395905,-0.871094 0.518776,-1.333168 0.132653,-0.498871 0.179306,-1.013947 0.204285,-1.528183 0.113869,-2.343849 0.107124,-4.693825 0.126846,-7.039757 0.01927,-2.291588 0.04211,-4.606628 -0.176216,-6.884697 -0.109169,-1.139053 -0.219711,-2.269737 -0.225746,-3.415298 -0.0063,-1.194664 0.03109,-2.389527 0.05617,-3.583821 0.02506,-1.193649 0.04993,-2.387298 0.07492,-3.580948 0.02482,-1.186012 0.01227,-2.373073 0.01376,-3.559341 0.003,-2.344124 -0.04337,-4.691383 -0.103302,-7.034702 -0.06102,-2.385739 -0.130577,-4.770485 -0.216294,-7.155468 -0.02035,-0.566181 -0.04069,-1.132366 -0.06104,-1.698548 -0.01009,-0.280613 -0.02019,-0.561226 -0.03026,-0.841838 -0.0052,-0.145897 -0.01047,-0.29179 -0.01572,-0.437687 -0.0026,-0.07295 -0.0052,-0.145901 -0.0079,-0.218853 -0.0014,-0.03841 -0.02014,-0.11184 0.0015,-0.142205 0.417336,0.197964 0.834122,0.397084 1.252068,0.593746 0.383942,0.180661 0.76622,0.369023 1.164337,0.516858 0.138359,0.05138 0.346077,0.12096 0.466431,-0.0044 0.09553,-0.09947 0.103302,-0.270794 0.103424,-0.399284 3.89e-4,-0.406937 -0.04501,-0.838074 -0.164208,-1.227822 -0.222427,-0.727321 -0.945991,-1.187595 -1.53395,-1.605217 -0.350197,-0.248741 -0.71164,-0.482124 -1.08387,-0.696544 -0.04968,-0.02862 -0.09955,-0.0569 -0.149201,-0.08555 -0.06103,-0.03522 -0.07716,-0.04048 -0.07703,-0.111359 2.06e-4,-0.11821 4.96e-4,-0.23642 7.86e-4,-0.35463 5.57e-4,-0.228607 0.0011,-0.457214 0.0017,-0.685817 0.0022,-0.894829 -0.02043,-1.795239 0.04698,-2.688273 0.06544,-0.866785 0.221894,-1.717514 0.340218,-2.577543 0.241257,-1.753473 0.2248,-3.515122 0.206612,-5.281084 -0.01844,-1.790625 -0.0432,-3.581099 -0.06925,-5.371626 -0.01299,-0.892119 -0.01859,-1.784527 -0.04166,-2.676459 C 38.833203,10.530527 38.825453,9.6757887 38.637871,8.8689457 38.449185,8.0572187 37.973241,7.3894687 37.41879,6.7832747 36.846028,6.1570577 36.19447,5.6042542 35.524106,5.0859122 34.225457,4.0817733 32.791837,3.2155494 31.320042,2.4910631 29.809918,1.7477097 28.220036,1.159925 26.589421,0.74284315 c -1.629913,-0.4169016 -3.317844,-0.6760302 -5.000187,-0.7286158 -0.409477,-0.0128 -0.819252,-0.0172026 -1.228905,-0.0122316 z M 31.029824,78.608889 c -0.142311,1.273468 -0.328686,2.553421 -1.05827,3.640282 -0.692772,1.032028 -1.733509,1.677353 -2.873085,2.121818 -1.240288,0.483757 -2.553676,0.749756 -3.877262,0.866555 -1.383102,0.122055 -2.784229,0.138427 -4.170547,0.06355 -1.347782,-0.0728 -2.688839,-0.251167 -3.980347,-0.654778 -1.166336,-0.364494 -2.343765,-0.882034 -3.185928,-1.795814 -0.39938,-0.433342 -0.72073,-0.937584 -0.948975,-1.480713 -0.247547,-0.589066 -0.377563,-1.219437 -0.468941,-1.849457 -0.198242,-1.366836 -0.306697,-2.748718 -0.421383,-4.124512 -0.2299799,-2.758903 -0.3546249,-5.527778 -0.4830999,-8.292831 -0.01594,-0.343079 -0.03188,-0.686157 -0.04781,-1.029236 0.7421719,0.130028 1.4878619,0.24012 2.2349589,0.337662 1.178169,0.153816 2.360645,0.274673 3.545223,0.366653 1.521286,0.118126 3.04636,0.188187 4.572071,0.209801 1.790066,0.02536 3.58128,-0.01611 5.367916,-0.130554 1.970066,-0.126183 3.934914,-0.341164 5.883625,-0.657654 0.250355,-0.04066 0.500435,-0.083 0.750217,-0.127052 -0.07557,1.627189 -0.136741,3.255798 -0.238616,4.881576 -0.102116,1.629563 -0.192028,3.260124 -0.330765,4.887078 -0.07877,0.923645 -0.166157,1.846328 -0.268982,2.767631 z m 2.46648,-38.566471 c -0.06201,0.519833 -0.128002,1.0392 -0.185387,1.559578 -0.02757,0.250004 -0.054,0.500133 -0.08144,0.750149 -0.0054,0.04893 -5.22e-4,0.279972 -0.03514,0.302375 -0.02069,0.01339 -0.109657,-0.01055 -0.134819,-0.01297 h 0.13556 c -1.59335,-0.35484 -3.183922,-0.675656 -4.805256,-0.875283 -1.634636,-0.201271 -3.280571,-0.345394 -4.925907,-0.420719 -1.650303,-0.07555 -3.305092,-0.08188 -4.956005,-0.02249 -1.654873,0.05952 -3.310158,0.189136 -4.955346,0.37661 -1.619533,0.184551 -3.216674,0.462421 -4.8072319,0.817245 -0.186786,0.04167 -0.373252,0.08829 -0.561061,0.124756 -0.233254,-2.112415 -0.496815,-4.221211 -0.742272,-6.332226 -0.246544,-2.120354 -0.556831,-4.234482 -0.840713,-6.350136 -0.142063,-1.058761 -0.27694,-2.117691 -0.356945,-3.183294 -0.03969,-0.528688 -0.06675,-1.05884 -0.06768,-1.589125 -2.29e-4,-0.131961 0.0017,-0.263918 0.0054,-0.395826 0.0033,-0.120857 -0.01497,-0.278599 0.0155,-0.395496 0.01739,-0.06672 0.02323,-0.06049 0.09059,-0.105782 0.05295,-0.03561 0.105923,-0.07118 0.158974,-0.106642 0.106048,-0.07088 0.212364,-0.14138 0.319313,-0.210899 0.857662,-0.557491 1.775459,-0.998715 2.716888,-1.395304 0.9609719,-0.404821 1.9356999,-0.780802 2.9248659,-1.111263 2.002056,-0.668852 4.096538,-1.025974 6.196781,-1.202219 2.116715,-0.17763 4.228092,-0.06248 6.326675,0.253311 1.035973,0.155891 2.067341,0.359016 3.074944,0.647968 1.011452,0.290055 2.003338,0.651532 2.980972,1.039446 0.958966,0.380505 1.922055,0.778025 2.824635,1.280579 0.44733,0.249071 0.873813,0.529924 1.298042,0.815986 0.06023,0.04062 0.06134,0.03347 0.07514,0.0953 0.01499,0.06718 0.0072,0.15325 0.0098,0.222071 0.005,0.133349 0.0085,0.266762 0.0095,0.400204 0.0021,0.265157 -0.0029,0.530403 -0.01261,0.795379 -0.07793,2.12261 -0.422355,4.230013 -0.704441,6.332198 -0.283828,2.115211 -0.554123,4.230793 -0.806892,6.349941 -0.06149,0.515526 -0.122982,1.031055 -0.184452,1.546585 z M 4.8460811,12.311533 c -0.236309,-0.332981 -0.309845,-0.75796 -0.354431,-1.155253 -0.05253,-0.467996 -0.04522,-0.939694 -0.02238,-1.4092973 0.02192,-0.450649 0.04968,-0.91555 0.170384,-1.352377 0.105503,-0.381797 0.294315,-0.734974 0.523018,-1.056667 0.476433,-0.670159 1.104076,-1.252539 1.745861,-1.76143 C 7.5950371,5.03216 8.3499701,4.5738918 9.1515101,4.2197573 9.6018121,4.0208075 10.068106,3.856169 10.546327,3.7384841 c 0.118798,-0.029234 0.238884,-0.05779 0.360039,-0.075472 0.09726,-0.014194 0.234295,-0.039337 0.324753,0.013222 0.05937,0.034497 0.07546,0.092232 0.0695,0.1578312 -0.0039,0.042857 -0.04136,0.21452 -0.08581,0.2175345 0.01972,0.00685 -0.17189,0.3012753 -0.202999,0.3501329 -0.09639,0.1513901 -0.191776,0.3032122 -0.291969,0.452158 -0.20538,0.3053112 -0.423283,0.6024437 -0.657677,0.886179 -0.2377209,0.2877652 -0.4926569,0.5612312 -0.7674559,0.8139572 -0.271404,0.249604 -0.558151,0.483896 -0.805828,0.758101 -0.504685,0.558734 -0.817124,1.272306 -1.114895,1.955067 -0.312592,0.716746 -0.594505,1.4480241 -0.942383,2.1489271 -0.172081,0.346703 -0.372879,0.696332 -0.672478,0.94925 -0.137748,0.116287 -0.314708,0.223688 -0.502033,0.212898 -0.173695,-0.01 -0.314449,-0.130563 -0.411011,-0.266737 z m 0.728497,52.313095 c -0.314919,-2.883934 -0.574486,-5.773693 -0.745217,-8.669876 -0.169735,-2.87931 -0.258159,-5.76189 -0.32764,-8.645157 -0.06992,-2.901729 -0.07489,-5.80791 -0.02136,-8.709938 0.03584,-1.943096 0.116806,-3.884216 0.201698,-5.825599 0.02027,-0.463505 0.03925,-0.927006 0.06462,-1.390259 0.003,-0.05405 -0.01569,-0.293781 0.02398,-0.323967 0.03003,-0.02285 0.166405,0 0.203923,0 h 0.186447 0.153526 c 0.04311,0 0.180657,-0.02454 0.216515,0 0.02679,0.01834 0.0342,0.180386 0.04072,0.21661 0.013,0.0722 0.02601,0.144402 0.039,0.216606 0.03376,0.187725 0.06741,0.375473 0.100586,0.563305 0.501816,2.841137 0.852356,5.710045 1.169056,8.576962 0.31432,2.845386 0.580597,5.694675 0.799171,8.549015 0.221615,2.894008 0.437996,5.7882 0.558354,8.688591 0.121288,2.92276 0.149738,5.849731 0.208786,8.774322 0.05826,2.885788 0.113392,5.771355 0.154678,8.65744 0.0096,0.674347 0.01926,1.348694 0.02891,2.023041 -0.414505,-0.719696 -0.81136,-1.445595 -1.096279,-2.227882 -0.289314,-0.794365 -0.500073,-1.616989 -0.690869,-2.439789 -0.391307,-1.687485 -0.671604,-3.399567 -0.910484,-5.114533 -0.135258,-0.971031 -0.251606,-1.944313 -0.358112,-2.918892 z m 0.62553,22.569497 C 5.8137141,86.8529 5.4937061,86.484988 5.3017281,86.000514 5.1057361,85.5059 4.9982311,84.964709 4.9379741,84.437579 c -0.06173,-0.540047 -0.0368,-1.075074 0.03374,-1.612915 0.03431,-0.261597 0.07845,-0.521523 0.131103,-0.780022 0.01971,-0.09676 0.03063,-0.222267 0.08659,-0.305824 0.106625,-0.159226 0.148502,0.219223 0.158566,0.277946 0.04718,0.275337 0.0994,0.550682 0.159919,0.823403 0.115567,0.520767 0.259384,1.035446 0.434326,1.539428 0.170811,0.492081 0.359368,0.991715 0.629014,1.43927 0.262764,0.436127 0.625064,0.782784 1.024951,1.092789 0.951622,0.737724 1.985859,1.392914 3.0326009,1.986496 -0.02497,-0.01385 -0.04994,-0.02771 -0.07491,-0.04156 0.143642,0.08664 0.290123,0.168663 0.439953,0.244141 -0.06742,-0.03741 -0.134831,-0.07482 -0.202248,-0.112229 0.552216,0.30526 1.131042,0.555077 1.687138,0.852333 0.02264,0.0121 0.15773,0.06931 0.131378,0.10743 -0.02963,0.04285 -0.332623,-0.06465 -0.363365,-0.07311 -0.305321,-0.08408 -0.60759,-0.178856 -0.908112,-0.278633 -1.180607,-0.391998 -2.3651539,-0.811973 -3.4873199,-1.352005 -0.588873,-0.283394 -1.159643,-0.616333 -1.65119,-1.050392 z M 36.279225,82.044642 c 0.214485,0.989601 0.269913,1.994278 0.07025,2.990273 -0.09518,0.474838 -0.219268,0.964775 -0.472152,1.382904 -0.233071,0.385368 -0.58545,0.702133 -0.937371,0.977317 -0.736202,0.575692 -1.602424,0.960831 -2.462356,1.311692 -0.931717,0.380157 -1.884098,0.723266 -2.845055,1.022072 -0.257313,0.08001 -0.519226,0.168106 -0.784801,0.216209 -0.08425,0.01526 -0.09584,-0.0112 -0.02508,-0.05969 0.07199,-0.04933 0.156937,-0.08655 0.233944,-0.12677 0.507698,-0.265175 1.032288,-0.492859 1.534058,-0.770264 -0.06748,0.03745 -0.134957,0.07489 -0.202439,0.112336 0.14983,-0.07548 0.296311,-0.157502 0.439953,-0.244141 -0.02501,0.01388 -0.05002,0.02776 -0.07503,0.04163 0.622917,-0.353226 1.230995,-0.735657 1.827411,-1.131844 0.572628,-0.380394 1.165303,-0.768471 1.664029,-1.244659 0.491004,-0.468811 0.780891,-1.057381 1.025443,-1.681893 0.259324,-0.662216 0.461243,-1.346588 0.613266,-2.041137 0.0441,-0.20147 0.08094,-0.404267 0.11818,-0.607087 0.01642,-0.08942 0.03287,-0.178543 0.04663,-0.268386 0.0087,-0.05682 0.01512,-0.174393 0.06735,-0.212296 0.101082,-0.07336 0.150185,0.27095 0.163765,0.333725 z M 36.034649,62.412615 c -0.197341,2.021164 -0.420829,4.038628 -0.716743,6.047966 -0.29187,1.981858 -0.644367,3.982117 -1.226013,5.901833 -0.156945,0.517998 -0.338433,1.029388 -0.56725,1.520309 -0.23072,0.495003 -0.500709,0.970223 -0.773029,1.443177 0.04006,-2.804329 0.08106,-5.608429 0.137722,-8.412476 0.05722,-2.83168 0.114525,-5.663361 0.171822,-8.495041 0.05735,-2.834278 0.214924,-5.671768 0.429702,-8.498375 0.2127,-2.799282 0.430085,-5.597442 0.706635,-8.391243 0.277122,-2.799587 0.599934,-5.593925 0.988941,-8.380237 0.09764,-0.699356 0.200798,-1.39761 0.314377,-2.094582 0.05544,-0.340179 0.113686,-0.679878 0.173698,-1.019279 0.02938,-0.166157 0.05912,-0.332249 0.08897,-0.498322 0.01558,-0.08665 0.03119,-0.173286 0.04679,-0.25993 0.0055,-0.03067 0.01798,-0.201046 0.04073,-0.21661 0.03217,-0.02201 0.155921,0 0.194397,0 h 0.173927 0.166946 c 0.02948,0 0.167671,-0.02036 0.189148,0 0.01251,0.01186 0.0054,0.09155 0.0063,0.107457 0.0053,0.09137 0.01069,0.182746 0.01603,0.27412 0.06964,1.190918 0.149613,2.381588 0.197609,3.573585 0.113342,2.814381 0.150536,5.631192 0.134056,8.447743 -0.01658,2.833301 -0.07508,5.668278 -0.182999,8.499649 -0.107063,2.80904 -0.272888,5.615795 -0.516464,8.416397 -0.059,0.678528 -0.129104,1.356018 -0.195282,2.033859 z M 30.716332,3.7101123 c 1.492958,0.341763 2.890446,1.11974 4.051273,2.1080785 0.543335,0.4625969 1.075287,0.9761659 1.483307,1.5647209 0.19709,0.284286 0.362244,0.592792 0.46566,0.92378 0.114517,0.366509 0.15194,0.757989 0.178673,1.139409 0.05433,0.7751273 0.09567,1.6122333 -0.127487,2.3663303 -0.08364,0.282624 -0.245575,0.672978 -0.564514,0.753461 -0.340454,0.08591 -0.660385,-0.243338 -0.84919,-0.482836 C 35.131901,11.801262 34.974629,11.474427 34.823147,11.151135 34.648949,10.779352 34.488854,10.401185 34.32956,10.022844 34.021157,9.2903657 33.726887,8.5344447 33.301888,7.8596167 33.099892,7.5388807 32.858364,7.2568637 32.581055,6.9990287 32.30167,6.7392647 32.009724,6.4947337 31.745324,6.2190687 31.216164,5.6673652 30.780522,5.0442402 30.370243,4.4017326 30.339325,4.3533136 30.146828,4.0589763 30.167237,4.0515997 c -0.04087,-0.00278 -0.07642,-0.1573925 -0.08245,-0.1940861 -0.0095,-0.058065 -0.0073,-0.1215048 0.03961,-0.1635656 0.135132,-0.1211229 0.440182,-0.016495 0.591931,0.016164 z"
     id="path1"
     style="display:inline;fill:#7287fd;fill-opacity:1"
     sodipodi:nodetypes="csssccscccsccscssssscscscsccsssscsssssssssssssscsssssssssssssscsssccccsscscssscscccscscssssscssssssssssscssssscsssscscsccsscsscsssscscccssssssssscccssccscsccsssssccccsscssscssssssscsscssscsssssccssssssssssssssssccccssccsssssssssssccccssssssssscssscsssssssscsscsscccsssccsssssssssssssscccss"
     inkscape:label="car" /></svg>
